<?xml version="1.0" standalone="no"?>
<!DOCTYPE svg PUBLIC "-//W3C//DTD SVG 20010904//EN"
 "http://www.w3.org/TR/2001/REC-SVG-20010904/DTD/svg10.dtd">
<svg version="1.0" xmlns="http://www.w3.org/2000/svg"
 width="512.000000pt" height="512.000000pt" viewBox="0 0 512.000000 512.000000"
 preserveAspectRatio="xMidYMid meet">

<g transform="translate(0.000000,512.000000) scale(0.100000,-0.100000)"
fill="#000000" stroke="none">
<path d="M2365 5109 c-486 -40 -952 -215 -1331 -499 -563 -424 -915 -1027
-1010 -1730 -23 -168 -23 -472 0 -640 78 -576 325 -1080 730 -1486 898 -898
2315 -1001 3332 -242 490 365 836 897 968 1488 80 363 80 757 0 1120 -232
1041 -1105 1837 -2164 1974 -152 20 -389 27 -525 15z m335 -1172 c167 -40 333
-111 465 -200 92 -62 224 -177 242 -210 34 -67 10 -135 -60 -170 -52 -26 -87
-15 -160 50 -241 216 -496 315 -807 314 -92 0 -163 -7 -225 -20 -484 -101
-847 -485 -921 -971 -60 -398 94 -803 402 -1059 220 -183 460 -271 745 -272
311 -1 565 98 806 314 73 65 108 76 160 50 70 -35 94 -103 60 -170 -18 -33
-150 -148 -242 -210 -155 -104 -352 -181 -550 -215 -100 -17 -146 -19 -275
-15 -171 7 -253 21 -410 73 -196 65 -360 167 -521 321 -172 166 -289 352 -364
577 -49 146 -67 266 -67 436 0 170 18 290 67 436 75 225 192 411 364 577 158
152 321 253 516 320 86 29 134 41 295 71 14 2 104 3 200 1 143 -3 194 -8 280
-28z m1192 -1074 c251 -251 266 -270 247 -336 -6 -23 -75 -99 -247 -270 -236
-235 -238 -237 -280 -237 -80 0 -132 48 -132 122 0 45 14 64 139 191 l106 107
-692 0 -691 0 -31 25 c-62 53 -62 137 0 190 l31 25 691 0 692 0 -106 108
c-125 126 -139 145 -139 190 0 74 50 121 130 122 l44 0 238 -237z"/>
</g>
</svg>
